<svg width="50" height="50" viewBox="0 0 50 50" fill="none" xmlns="http://www.w3.org/2000/svg">
<path d="M10.1374 37.325C12.1916 35.7542 14.4874 34.5157 17.0249 33.6094C19.5624 32.7032 22.2208 32.25 24.9999 32.25C27.7791 32.25 30.4374 32.7032 32.9749 33.6094C35.5124 34.5157 37.8083 35.7542 39.8624 37.325C41.2721 35.6737 42.3697 33.8007 43.1551 31.7063C43.9405 29.6118 44.3333 27.3764 44.3333 25C44.3333 19.6431 42.4503 15.0816 38.6843 11.3157C34.9183 7.54969 30.3569 5.66671 24.9999 5.66671C19.643 5.66671 15.0815 7.54969 11.3155 11.3157C7.54957 15.0816 5.66658 19.6431 5.66658 25C5.66658 27.3764 6.05929 29.6118 6.84471 31.7063C7.63013 33.8007 8.7277 35.6737 10.1374 37.325ZM24.9999 27.4167C22.6235 27.4167 20.6197 26.6011 18.9885 24.9698C17.3572 23.3386 16.5416 21.3348 16.5416 18.9584C16.5416 16.582 17.3572 14.5782 18.9885 12.9469C20.6197 11.3157 22.6235 10.5 24.9999 10.5C27.3763 10.5 29.3801 11.3157 31.0114 12.9469C32.6426 14.5782 33.4583 16.582 33.4583 18.9584C33.4583 21.3348 32.6426 23.3386 31.0114 24.9698C29.3801 26.6011 27.3763 27.4167 24.9999 27.4167ZM24.9999 49.1667C21.6569 49.1667 18.5152 48.5323 15.5749 47.2636C12.6346 45.9948 10.077 44.273 7.902 42.098C5.727 39.923 4.00513 37.3653 2.73638 34.425C1.46763 31.4848 0.833252 28.3431 0.833252 25C0.833252 21.657 1.46763 18.5153 2.73638 15.575C4.00513 12.6348 5.727 10.0771 7.902 7.90212C10.077 5.72712 12.6346 4.00525 15.5749 2.7365C18.5152 1.46775 21.6569 0.833374 24.9999 0.833374C28.343 0.833374 31.4846 1.46775 34.4249 2.7365C37.3652 4.00525 39.9228 5.72712 42.0978 7.90212C44.2728 10.0771 45.9947 12.6348 47.2635 15.575C48.5322 18.5153 49.1666 21.657 49.1666 25C49.1666 28.3431 48.5322 31.4848 47.2635 34.425C45.9947 37.3653 44.2728 39.923 42.0978 42.098C39.9228 44.273 37.3652 45.9948 34.4249 47.2636C31.4846 48.5323 28.343 49.1667 24.9999 49.1667ZM24.9999 44.3334C27.1346 44.3334 29.1485 44.0212 31.0416 43.3969C32.9346 42.7726 34.6666 41.8764 36.2374 40.7084C34.6666 39.5403 32.9346 38.6441 31.0416 38.0198C29.1485 37.3955 27.1346 37.0834 24.9999 37.0834C22.8652 37.0834 20.8513 37.3955 18.9583 38.0198C17.0652 38.6441 15.3333 39.5403 13.7624 40.7084C15.3333 41.8764 17.0652 42.7726 18.9583 43.3969C20.8513 44.0212 22.8652 44.3334 24.9999 44.3334ZM24.9999 22.5834C26.0471 22.5834 26.9131 22.241 27.5978 21.5563C28.2826 20.8716 28.6249 20.0056 28.6249 18.9584C28.6249 17.9112 28.2826 17.0452 27.5978 16.3605C26.9131 15.6757 26.0471 15.3334 24.9999 15.3334C23.9527 15.3334 23.0867 15.6757 22.402 16.3605C21.7173 17.0452 21.3749 17.9112 21.3749 18.9584C21.3749 20.0056 21.7173 20.8716 22.402 21.5563C23.0867 22.241 23.9527 22.5834 24.9999 22.5834Z" fill="#545454"/>
</svg>
