<svg width="69" height="69" viewBox="0 0 69 69" fill="none" xmlns="http://www.w3.org/2000/svg">
<path d="M18.1125 50.6C20.5563 48.875 23.1079 47.5094 25.7672 46.5032C28.4266 45.4969 31.3375 44.9938 34.5 44.9938C37.6625 44.9938 40.5735 45.4969 43.2329 46.5032C45.8922 47.5094 48.4438 48.875 50.8875 50.6C52.8521 48.6355 54.4454 46.2875 55.6672 43.5563C56.8891 40.825 57.5 37.8063 57.5 34.5C57.5 28.1271 55.2599 22.7006 50.7797 18.2204C46.2995 13.7402 40.873 11.5 34.5 11.5C28.1271 11.5 22.7006 13.7402 18.2204 18.2204C13.7402 22.7006 11.5 28.1271 11.5 34.5C11.5 37.8063 12.111 40.825 13.3329 43.5563C14.5547 46.2875 16.148 48.6355 18.1125 50.6ZM34.5022 35.5063C32.2008 35.5063 30.2594 34.7164 28.6782 33.1366C27.0969 31.5568 26.3063 29.6161 26.3063 27.3147C26.3063 25.0133 27.0962 23.0719 28.676 21.4907C30.2558 19.9094 32.1965 19.1188 34.4979 19.1188C36.7993 19.1188 38.7407 19.9087 40.3219 21.4885C41.9032 23.0683 42.6938 25.009 42.6938 27.3104C42.6938 29.6118 41.9039 31.5532 40.3241 33.1344C38.7443 34.7157 36.8036 35.5063 34.5022 35.5063ZM34.5 59.5125C31.0021 59.5125 27.7318 58.8657 24.6891 57.5719C21.6464 56.2782 18.999 54.5053 16.7469 52.2532C14.4948 50.0011 12.7219 47.3537 11.4282 44.311C10.1344 41.2683 9.48755 37.998 9.48755 34.5C9.48755 31.0021 10.1344 27.7318 11.4282 24.6891C12.7219 21.6464 14.4948 18.999 16.7469 16.7469C18.999 14.4948 21.6464 12.7219 24.6891 11.4282C27.7318 10.1344 31.0021 9.48755 34.5 9.48755C37.998 9.48755 41.2683 10.1344 44.311 11.4282C47.3537 12.7219 50.0011 14.4948 52.2532 16.7469C54.5053 18.999 56.2782 21.6464 57.5719 24.6891C58.8657 27.7318 59.5125 31.0021 59.5125 34.5C59.5125 37.998 58.8657 41.2683 57.5719 44.311C56.2782 47.3537 54.5053 50.0011 52.2532 52.2532C50.0011 54.5053 47.3537 56.2782 44.311 57.5719C41.2683 58.8657 37.998 59.5125 34.5 59.5125ZM34.5 57.5C37.1834 57.5 39.8547 57.0089 42.5141 56.0266C45.1735 55.0443 47.4375 53.7146 49.3063 52.0375C47.4375 50.5042 45.2454 49.2823 42.7297 48.3719C40.2141 47.4615 37.4709 47.0063 34.5 47.0063C31.5292 47.0063 28.774 47.4495 26.2344 48.336C23.6948 49.2224 21.5146 50.4563 19.6938 52.0375C21.5625 53.7146 23.8266 55.0443 26.486 56.0266C29.1454 57.0089 31.8167 57.5 34.5 57.5ZM34.5 33.4938C36.225 33.4938 37.6865 32.8948 38.8844 31.6969C40.0823 30.499 40.6813 29.0375 40.6813 27.3125C40.6813 25.5875 40.0823 24.1261 38.8844 22.9282C37.6865 21.7303 36.225 21.1313 34.5 21.1313C32.775 21.1313 31.3136 21.7303 30.1157 22.9282C28.9178 24.1261 28.3188 25.5875 28.3188 27.3125C28.3188 29.0375 28.9178 30.499 30.1157 31.6969C31.3136 32.8948 32.775 33.4938 34.5 33.4938Z" fill="#545454"/>
</svg>
