<svg width="38" height="39" viewBox="0 0 38 39" fill="none" xmlns="http://www.w3.org/2000/svg">
<path fill-rule="evenodd" clip-rule="evenodd" d="M10.8576 5.25C9.2382 5.25 7.68506 5.89316 6.53972 7.03806C5.39438 8.18296 4.75062 9.73586 4.75 11.3553V27.6424C4.75 29.2622 5.39348 30.8157 6.53889 31.9611C7.68429 33.1065 9.2378 33.75 10.8576 33.75H27.1447C28.7641 33.7494 30.317 33.1056 31.4619 31.9603C32.6068 30.8149 33.25 29.2618 33.25 27.6424V11.3553C33.2494 9.73626 32.6059 8.18372 31.4611 7.03889C30.3163 5.89406 28.7637 5.25062 27.1447 5.25H10.8576ZM28.9015 11.3647C28.9015 11.8312 28.7161 12.2787 28.3862 12.6086C28.0563 12.9385 27.6089 13.1238 27.1424 13.1238C26.6758 13.1238 26.2284 12.9385 25.8985 12.6086C25.5686 12.2787 25.3832 11.8312 25.3832 11.3647C25.3832 10.8981 25.5686 10.4507 25.8985 10.1208C26.2284 9.7909 26.6758 9.60557 27.1424 9.60557C27.6089 9.60557 28.0563 9.7909 28.3862 10.1208C28.7161 10.4507 28.9015 10.8981 28.9015 11.3647ZM19.0035 14.6202C17.7096 14.6202 16.4687 15.1342 15.5538 16.0491C14.6389 16.964 14.1249 18.2049 14.1249 19.4988C14.1249 20.7927 14.6389 22.0336 15.5538 22.9485C16.4687 23.8634 17.7096 24.3774 19.0035 24.3774C20.2974 24.3774 21.5383 23.8634 22.4532 22.9485C23.3681 22.0336 23.8821 20.7927 23.8821 19.4988C23.8821 18.2049 23.3681 16.964 22.4532 16.0491C21.5383 15.1342 20.2974 14.6202 19.0035 14.6202ZM11.7771 19.4988C11.7771 17.5829 12.5382 15.7454 13.893 14.3906C15.2477 13.0358 17.0852 12.2747 19.0012 12.2747C20.9171 12.2747 22.7546 13.0358 24.1094 14.3906C25.4642 15.7454 26.2253 17.5829 26.2253 19.4988C26.2253 21.4148 25.4642 23.2523 24.1094 24.607C22.7546 25.9618 20.9171 26.7229 19.0012 26.7229C17.0852 26.7229 15.2477 25.9618 13.893 24.607C12.5382 23.2523 11.7771 21.4148 11.7771 19.4988Z" fill="#545454"/>
</svg>
