<svg width="39" height="39" viewBox="0 0 39 39" fill="none" xmlns="http://www.w3.org/2000/svg">
<path d="M30.4375 5.4375C31.2663 5.4375 32.0612 5.76674 32.6472 6.35279C33.2333 6.93884 33.5625 7.7337 33.5625 8.5625V30.4375C33.5625 31.2663 33.2333 32.0612 32.6472 32.6472C32.0612 33.2333 31.2663 33.5625 30.4375 33.5625H8.5625C7.7337 33.5625 6.93884 33.2333 6.35279 32.6472C5.76674 32.0612 5.4375 31.2663 5.4375 30.4375V8.5625C5.4375 7.7337 5.76674 6.93884 6.35279 6.35279C6.93884 5.76674 7.7337 5.4375 8.5625 5.4375H30.4375ZM29.6562 29.6562V21.375C29.6562 20.0241 29.1196 18.7284 28.1643 17.7732C27.2091 16.8179 25.9134 16.2812 24.5625 16.2812C23.2344 16.2812 21.6875 17.0938 20.9375 18.3125V16.5781H16.5781V29.6562H20.9375V21.9531C20.9375 20.75 21.9062 19.7656 23.1094 19.7656C23.6895 19.7656 24.2459 19.9961 24.6562 20.4063C25.0664 20.8166 25.2969 21.373 25.2969 21.9531V29.6562H29.6562ZM11.5 14.125C12.1962 14.125 12.8639 13.8484 13.3562 13.3562C13.8484 12.8639 14.125 12.1962 14.125 11.5C14.125 10.0469 12.9531 8.85938 11.5 8.85938C10.7997 8.85938 10.128 9.13758 9.6328 9.6328C9.13758 10.128 8.85938 10.7997 8.85938 11.5C8.85938 12.9531 10.0469 14.125 11.5 14.125ZM13.6719 29.6562V16.5781H9.34375V29.6562H13.6719Z" fill="#545454"/>
</svg>
